<svg width="32" height="34" viewBox="0 0 32 34" fill="none" xmlns="http://www.w3.org/2000/svg">
<path d="M24.7636 32.7253C26.1427 32.7253 27.2293 31.6806 27.2711 30.3014L28.0651 6.43864H31.1994V4.76699H22.3815V2.96996C22.3815 1.54906 21.2113 0.378906 19.7904 0.378906H11.9337C10.5128 0.378906 9.3426 1.54906 9.3426 2.96996V4.76699H0.525391V6.43864H3.65974L4.45377 30.3014C4.49556 31.6806 5.58213 32.7253 6.96124 32.7253H24.7636ZM11.0143 2.96996C11.0143 2.46847 11.4322 2.05056 11.9337 2.05056H19.7904C20.2919 2.05056 20.7098 2.46847 20.7098 2.96996V4.76699H11.0143V2.96996ZM6.12467 30.2597L5.33064 6.43864H26.3516L25.5576 30.2597C25.5576 30.7194 25.1815 31.0537 24.7218 31.0537H6.9605C6.54259 31.0537 6.16646 30.7194 6.12467 30.2597Z" fill="#202020" stroke="#202020" stroke-width="0.613603"/>
<path d="M15.0234 12.3711H16.6953V24.8686H15.0234V12.3711Z" fill="#202020" stroke="#202020" stroke-width="0.613603"/>
<path d="M10.0098 12.3711H11.6817V24.8686H10.0098V12.3711Z" fill="#202020" stroke="#202020" stroke-width="0.613603"/>
<path d="M20.0391 12.3711H21.711V24.8686H20.0391V12.3711Z" fill="#202020" stroke="#202020" stroke-width="0.613603"/>
</svg>
