<svg width="104" height="20" viewBox="0 0 104 20" fill="none" xmlns="http://www.w3.org/2000/svg">
<path d="M9.95218 1.19243L11.8345 6.95198L11.9179 7.20734H12.1866L18.2718 7.20734L13.3506 10.7621L13.1314 10.9204L13.2154 11.1774L15.0963 16.9326L10.1691 13.3736L9.95218 13.2169L9.73528 13.3736L4.80805 16.9326L6.68893 11.1774L6.77293 10.9204L6.55374 10.7621L1.63252 7.20734L7.71777 7.20734H7.98642L8.06987 6.95198L9.95218 1.19243Z" stroke="#FFCC81" stroke-width="0.740844"/>
<path d="M30.9522 1.19243L32.8345 6.95198L32.9179 7.20734H33.1866L39.2718 7.20734L34.3506 10.7621L34.1314 10.9204L34.2154 11.1774L36.0963 16.9326L31.1691 13.3736L30.9522 13.2169L30.7353 13.3736L25.808 16.9326L27.6889 11.1774L27.7729 10.9204L27.5537 10.7621L22.6325 7.20734L28.7178 7.20734H28.9864L29.0699 6.95198L30.9522 1.19243Z" stroke="#FFCC81" stroke-width="0.740844"/>
<path d="M93.9815 1.28618L95.8638 7.04573L95.9472 7.30109H96.2159L102.301 7.30109L97.3799 10.8558L97.1607 11.0142L97.2447 11.2712L99.1256 17.0264L94.1984 13.4673L93.9815 13.3106L93.7646 13.4673L88.8373 17.0264L90.7182 11.2712L90.8022 11.0142L90.583 10.8558L85.6618 7.30109L91.7471 7.30109H92.0157L92.0992 7.04573L93.9815 1.28618Z" stroke="#FFCC81" stroke-width="0.740844"/>
<path d="M72.9522 1.19243L74.8345 6.95198L74.9179 7.20734H75.1866L81.2718 7.20734L76.3506 10.7621L76.1314 10.9204L76.2154 11.1774L78.0963 16.9326L73.1691 13.3736L72.9522 13.2169L72.7353 13.3736L67.808 16.9326L69.6889 11.1774L69.7729 10.9204L69.5537 10.7621L64.6325 7.20734L70.7178 7.20734H70.9864L71.0699 6.95198L72.9522 1.19243Z" stroke="#FFCC81" stroke-width="0.740844"/>
<path d="M51.9522 1.19243L53.8345 6.95198L53.9179 7.20734H54.1866L60.2718 7.20734L55.3506 10.7621L55.1314 10.9204L55.2154 11.1774L57.0963 16.9326L52.1691 13.3736L51.9522 13.2169L51.7353 13.3736L46.808 16.9326L48.6889 11.1774L48.7729 10.9204L48.5537 10.7621L43.6325 7.20734L49.7178 7.20734H49.9864L50.0699 6.95198L51.9522 1.19243Z" stroke="#FFCC81" stroke-width="0.740844"/>
</svg>
