<svg width="106" height="29" viewBox="0 0 106 29" fill="none" xmlns="http://www.w3.org/2000/svg">
<path d="M34.4671 6.4375C34.251 6.4375 34.067 6.59442 34.0333 6.80885L31.5283 22.6965C31.4938 22.9183 31.645 23.1262 31.8668 23.1615C31.8874 23.1648 31.9087 23.1664 31.9301 23.1664H34.9009C35.117 23.1664 35.301 23.0087 35.3347 22.7951L36.0708 18.1293C36.1045 17.9157 36.2886 17.758 36.5046 17.758H39.206C42.3625 17.758 45.0408 15.4551 45.5305 12.3348C46.0242 9.18813 43.5652 6.44407 40.0809 6.4375H34.4671ZM37.355 9.98424H39.5165C41.2961 9.98424 41.8753 11.0342 41.6921 12.1951C41.5088 13.3585 40.6092 14.2154 38.888 14.2154H36.6887L37.3558 9.98424H37.355ZM51.5731 11.0646C50.823 11.0671 49.9596 11.2207 48.9909 11.6249C46.7677 12.5517 45.7005 14.4668 45.247 15.8626C45.247 15.8626 43.8043 20.1217 47.0643 22.4623C47.0643 22.4623 50.0877 24.7151 53.4915 22.3235L53.4332 22.6973C53.3987 22.9191 53.5499 23.127 53.7717 23.1623C53.7922 23.1656 53.8128 23.1672 53.8341 23.1672H56.6546C56.8707 23.1672 57.0547 23.0095 57.0884 22.7959L58.8038 11.9158C58.8392 11.6939 58.688 11.4853 58.4653 11.4508C58.4448 11.4475 58.4234 11.4458 58.4021 11.4458H55.5816C55.3655 11.4458 55.1807 11.6036 55.1478 11.8172L55.0558 12.403C55.0558 12.403 53.8243 11.0572 51.5731 11.0663V11.0646ZM51.6652 14.5013C51.9889 14.5013 52.2854 14.5456 52.5508 14.6311C53.7676 15.0213 54.4577 16.1904 54.2581 17.4581C54.0116 19.0183 52.7324 20.1677 51.0909 20.1677C50.7672 20.1677 50.4714 20.1233 50.2052 20.0379C48.9885 19.6476 48.2942 18.4785 48.4939 17.2108C48.7404 15.6506 50.0236 14.5013 51.6652 14.5013Z" fill="#003087"/>
<path d="M75.0784 6.4375C74.8624 6.4375 74.6783 6.59442 74.6447 6.80885L72.1397 22.6965C72.1052 22.9183 72.2563 23.1262 72.4782 23.1615C72.4987 23.1648 72.5201 23.1664 72.5414 23.1664H75.5122C75.7283 23.1664 75.9123 23.0087 75.946 22.7951L76.6822 18.1293C76.7158 17.9157 76.8999 17.758 77.116 17.758H79.8173C82.9738 17.758 85.6521 15.4551 86.141 12.3348C86.6347 9.18813 84.1766 6.44407 80.6923 6.4375H75.0784ZM77.9663 9.98424H80.1278C81.9074 9.98424 82.4866 11.0342 82.3034 12.1951C82.1202 13.3585 81.2205 14.2154 79.4993 14.2154H77.3L77.9671 9.98424H77.9663ZM92.1836 11.0646C91.4335 11.0671 90.5701 11.2207 89.6014 11.6249C87.3783 12.5517 86.311 14.4668 85.8575 15.8626C85.8575 15.8626 84.4148 20.1217 87.6757 22.4623C87.6757 22.4623 90.6982 24.7151 94.102 22.3235L94.0437 22.6973C94.0092 22.9191 94.1604 23.127 94.3822 23.1623C94.4027 23.1656 94.4241 23.1672 94.4454 23.1672H97.2659C97.482 23.1672 97.666 23.0095 97.6997 22.7959L99.416 11.9158C99.4513 11.6939 99.3001 11.4853 99.0775 11.4508C99.0561 11.4475 99.0348 11.4458 99.0134 11.4458H96.1929C95.9769 11.4458 95.792 11.6036 95.7591 11.8172L95.6671 12.403C95.6671 12.403 94.4356 11.0572 92.1845 11.0663L92.1836 11.0646ZM92.2757 14.5013C92.5994 14.5013 92.896 14.5456 93.1613 14.6311C94.3781 15.0213 95.0682 16.1904 94.8686 17.4581C94.6221 19.0183 93.3429 20.1677 91.7014 20.1677C91.3777 20.1677 91.0819 20.1233 90.8157 20.0379C89.599 19.6476 88.9047 18.4785 89.1044 17.2108C89.3509 15.6506 90.6342 14.5013 92.2757 14.5013Z" fill="#0070E0"/>
<path d="M60.1406 11.4422C59.9172 11.4422 59.7578 11.6608 59.8268 11.8736L62.9192 21.4687L60.1234 25.9907C59.9878 26.21 60.1456 26.4935 60.4036 26.4935H63.7079C63.9002 26.4935 64.0785 26.3924 64.1779 26.2281L72.8134 11.9426C72.9457 11.7232 72.788 11.4422 72.5308 11.4422H69.2265C69.0326 11.4422 68.8526 11.5449 68.754 11.7117L65.3552 17.4504L63.6299 11.7536C63.574 11.5679 63.4023 11.4414 63.2092 11.4414H60.1415L60.1406 11.4422Z" fill="#003087"/>
<path d="M102.622 6.43832C102.406 6.43832 102.222 6.59606 102.189 6.80967L99.6829 22.6965C99.6475 22.9183 99.7987 23.127 100.021 23.1615C100.043 23.1648 100.064 23.1664 100.085 23.1664H103.056C103.272 23.1664 103.456 23.0087 103.49 22.7951L105.995 6.90744C106.03 6.68562 105.878 6.47776 105.657 6.44243C105.636 6.43914 105.615 6.4375 105.594 6.4375H102.623L102.622 6.43832Z" fill="#0070E0"/>
<path d="M9.69821 6.4375C9.30303 6.4375 8.96618 6.72587 8.90457 7.11612L7.58594 15.4806C7.64756 15.0903 7.9844 14.802 8.37958 14.802H12.2443C16.1336 14.802 19.4339 11.9651 20.0369 8.12009C20.0821 7.83336 20.1076 7.54334 20.1133 7.2525C19.125 6.73409 17.9641 6.4375 16.6915 6.4375H9.69821Z" fill="#001C64"/>
<path d="M20.109 7.25C20.1032 7.54084 20.0777 7.83003 20.0325 8.11758C19.4295 11.9626 16.1292 14.7995 12.2399 14.7995H8.37521C7.98003 14.7995 7.64319 15.087 7.58157 15.4781L6.36892 23.1639L5.60979 27.9857C5.5531 28.3415 5.79546 28.6759 6.15121 28.7326C6.18489 28.7383 6.2194 28.7408 6.2539 28.7408H10.448C10.8432 28.7408 11.1801 28.4524 11.2417 28.0621L12.3467 21.0549C12.4083 20.6639 12.7452 20.3763 13.1412 20.3763H15.6108C19.5002 20.3763 22.8004 17.5394 23.4035 13.6944C23.8315 10.966 22.457 8.48236 20.109 7.25082V7.25Z" fill="#0070E0"/>
<path d="M4.93086 0.859375C4.53569 0.859375 4.19884 1.14693 4.13722 1.53717L0.845992 22.4093C0.783552 22.8053 1.09 23.1635 1.49093 23.1635H6.37191L7.58373 15.4777L8.90236 7.11321C8.96398 6.72296 9.30082 6.43541 9.696 6.43459H16.6884C17.961 6.43459 19.1219 6.73117 20.1103 7.24959C20.1777 3.74968 17.2898 0.859375 13.3183 0.859375H4.93086Z" fill="#003087"/>
</svg>
